<?xml version="1.0" encoding="UTF-8" standalone="no"?>
<!-- Created with Inkscape (http://www.inkscape.org/) -->

<svg
   xmlns:dc="http://purl.org/dc/elements/1.1/"
   xmlns:cc="http://creativecommons.org/ns#"
   xmlns:rdf="http://www.w3.org/1999/02/22-rdf-syntax-ns#"
   xmlns:svg="http://www.w3.org/2000/svg"
   xmlns="http://www.w3.org/2000/svg"
   xmlns:sodipodi="http://sodipodi.sourceforge.net/DTD/sodipodi-0.dtd"
   xmlns:inkscape="http://www.inkscape.org/namespaces/inkscape"
   width="117.544mm"
   height="92.567001mm"
   viewBox="0 0 117.544 92.567001"
   version="1.1"
   id="svg4764"
   inkscape:version="0.92.3 (2405546, 2018-03-11)"
   sodipodi:docname="optimized_u.svg">
  <defs
     id="defs4758" />
  <sodipodi:namedview
     id="base"
     pagecolor="#ffffff"
     bordercolor="#666666"
     borderopacity="1.0"
     inkscape:pageopacity="0.0"
     inkscape:pageshadow="2"
     inkscape:zoom="1.979899"
     inkscape:cx="122.0937"
     inkscape:cy="179.12884"
     inkscape:document-units="mm"
     inkscape:current-layer="layer1"
     showgrid="false"
     inkscape:window-width="3440"
     inkscape:window-height="1377"
     inkscape:window-x="1912"
     inkscape:window-y="-8"
     inkscape:window-maximized="1" />
  <metadata
     id="metadata4761">
    <rdf:RDF>
      <cc:Work
         rdf:about="">
        <dc:format>image/svg+xml</dc:format>
        <dc:type
           rdf:resource="http://purl.org/dc/dcmitype/StillImage" />
        <dc:title></dc:title>
      </cc:Work>
    </rdf:RDF>
  </metadata>
  <g
     inkscape:label="Layer 1"
     inkscape:groupmode="layer"
     id="layer1"
     transform="translate(0,-204.433)">
    <path
       style="fill:#000000;fill-opacity:1;stroke-width:0.28949833"
       d="M 6.6277061,204.43466 C 5.6111479,204.39806 4.7235793,205.11947 4.5740844,206.01544 3.4121032,211.23838 2.3420647,217.61306 1.6786538,222.34158 -0.03022646,238.54484 -2.2145391,260.69931 5.2086716,277.50927 14.395201,296.03034 40.112589,297.05477 58.77181,296.998 77.431028,297.0548 103.14842,296.03034 112.33495,277.50927 119.75816,260.69931 117.57384,238.54484 115.86496,222.34158 115.20156,217.61306 114.13151,211.23838 112.96953,206.01544 112.81007,205.05974 111.81109,204.30259 110.71127,204.45223 L 97.798883,206.44952 C 96.945684,206.54202 96.018065,207.35943 96.119917,208.76514 97.251926,214.5212 98.074312,219.83038 98.754381,225.87315 101.0217,249.16465 99.498163,259.56934 96.553997,267.0081 92.941459,277.43173 76.819589,279.13655 58.77181,279.23836 40.724028,279.13655 24.602159,277.43173 20.98962,267.0081 18.045458,259.56934 16.521916,249.16465 18.789237,225.87315 19.469308,219.83038 20.291692,214.5212 21.423701,208.76514 21.525552,207.35943 20.597933,206.54207 19.744734,206.44952 L 6.8323455,204.45223 C 6.7636065,204.44323 6.6954765,204.43713 6.6277061,204.43463 Z"
       id="path4-0"
       inkscape:connector-curvature="0" />
  </g>
</svg>
