<?xml version="1.0" encoding="UTF-8" standalone="no"?>
<svg
   xmlns:dc="http://purl.org/dc/elements/1.1/"
   xmlns:cc="http://creativecommons.org/ns#"
   xmlns:rdf="http://www.w3.org/1999/02/22-rdf-syntax-ns#"
   xmlns:svg="http://www.w3.org/2000/svg"
   xmlns="http://www.w3.org/2000/svg"
   height="200mm"
   width="200mm"
   xml:space="preserve"
   viewBox="0 0 755.90554 755.90555"
   y="0px"
   x="0px"
   id="Layer_1"
   version="1.1"><metadata
   id="metadata25"><rdf:RDF><cc:Work
       rdf:about=""><dc:format>image/svg+xml</dc:format><dc:type
         rdf:resource="http://purl.org/dc/dcmitype/StillImage" /><dc:title></dc:title></cc:Work></rdf:RDF></metadata><defs
   id="defs23" />
<style
   id="style2"
   type="text/css">
	.st0{fill:#FFFFFF;}
</style>
<path
   id="path4"
   d="m 370.29295,506.89121 c -29.32579,0.76586 -58.65159,-1.85995 -87.32084,-7.98684 -21.22838,-4.26694 -38.95516,-18.59948 -47.81856,-38.29306 -8.53512,-19.69357 -12.69325,-50.10921 -12.36498,-91.24689 0.10943,-21.44412 1.53195,-42.88823 4.04871,-64.22294 2.40734,-20.78766 4.81468,-37.85543 7.33145,-51.3127 l 2.62619,-13.34787 c 0,-0.43764 0,-0.76586 0,-1.2035 0,-3.71989 -2.62619,-6.89275 -6.34663,-7.5492 l -48.80337,-7.5492 h -1.09425 c -3.61101,0 -6.6749,2.40699 -7.44087,5.90807 -0.8754,3.17285 -1.3131,5.47044 -2.73562,12.91023 -2.73562,14.33255 -5.36181,28.33687 -8.20685,48.7963 -3.06389,22.20998 -4.81468,44.52936 -5.47123,66.84875 -1.09424,15.53604 -1.09424,31.18149 0,46.82694 1.20367,41.35651 8.31627,74.39795 21.3378,99.12433 13.02153,24.72637 35.1253,42.45059 66.31132,53.39147 31.18602,10.83146 74.51816,16.19249 130.21529,15.97367 h 7.00318 c 55.69713,0.21882 99.1387,-5.0328 130.21529,-15.97367 31.07659,-10.83147 53.18036,-28.6651 66.31132,-53.39147 13.02153,-24.72638 20.13413,-57.76782 21.3378,-99.12433 1.09425,-15.53604 1.09425,-31.18149 0,-46.82694 -0.65655,-22.31939 -2.51677,-44.63877 -5.47123,-66.84875 -2.84504,-20.24062 -5.47123,-34.13553 -8.20685,-48.7963 -1.42252,-7.43979 -1.96964,-9.73738 -2.73561,-12.91023 -0.76598,-3.50108 -3.93929,-5.90807 -7.44088,-5.90807 h -1.53194 l -48.80338,7.5492 c -3.72044,0.65645 -6.45605,3.82931 -6.34663,7.5492 0,0.43764 0,0.76586 0,1.2035 l 2.62619,13.34787 c 2.51677,13.56668 4.92411,30.63445 7.44088,51.3127 2.51676,21.33471 3.82986,42.77882 3.93928,64.22294 0.4377,41.02828 -3.72043,71.44391 -12.4744,91.13748 -8.64455,19.69358 -26.26191,33.91671 -47.27144,38.40247 -28.66925,6.12689 -57.99504,8.7527 -87.32084,7.87743 z"
   style="fill:#000000;stroke-width:1.09416687;fill-opacity:1" />







</svg>